/* XPM */
static char * close_prelight_xpm[] = {
"14 42 91 1",
" 	c None",
".	c #000000",
"+	c #4D4D4D",
"@	c #1A1A1A",
"#	c #181818",
"$	c #0E0E0E",
"%	c #060606",
"&	c #020202",
"*	c #121212",
"=	c #090505",
"-	c #490F15",
";	c #821824",
">	c #9E1C2B",
",	c #490E15",
"'	c #131313",
")	c #150709",
"!	c #881926",
"~	c #BB2431",
"{	c #DB2D37",
"]	c #EA323A",
"^	c #BB2331",
"/	c #871926",
"(	c #191919",
"_	c #0C0808",
":	c #CB2934",
"<	c #E8313A",
"[	c #EB323B",
"}	c #ED333B",
"|	c #CB2935",
"1	c #111111",
"2	c #4C1218",
"3	c #E62F37",
"4	c #8D1624",
"5	c #961524",
"6	c #DA1C25",
"7	c #8D1623",
"8	c #BB2332",
"9	c #4B1118",
"0	c #0D0D0D",
"a	c #841925",
"b	c #DC2731",
"c	c #DF1B25",
"d	c #961523",
"e	c #861423",
"f	c #941623",
"g	c #951623",
"h	c #DD2731",
"i	c #831925",
"j	c #0C0C0C",
"k	c #9E1D2C",
"l	c #E11D26",
"m	c #E01B24",
"n	c #D91B24",
"o	c #941523",
"p	c #921523",
"q	c #D81A24",
"r	c #E11E27",
"s	c #951523",
"t	c #931524",
"u	c #D71A23",
"v	c #E01C24",
"w	c #9D1C2C",
"x	c #851A26",
"y	c #DF1E28",
"z	c #DE1A24",
"A	c #DF1A24",
"B	c #DF1F28",
"C	c #851B27",
"D	c #161616",
"E	c #51161D",
"F	c #C7202D",
"G	c #DB1B24",
"H	c #8D1523",
"I	c #DC1B24",
"J	c #C5212E",
"K	c #50161D",
"L	c #171313",
"M	c #8A1C29",
"N	c #D6222C",
"O	c #D5212B",
"P	c #181515",
"Q	c #241618",
"R	c #C6212E",
"S	c #DF1F29",
"T	c #E01C25",
"U	c #DF2029",
"V	c #1A1717",
"W	c #531920",
"X	c #861C28",
"Y	c #851C28",
"Z	c #1B1818",
"..............",
"++++++++++++++",
"@@@@@@@@@@@@@@",
"@@@@@@@@@@@@@@",
"@@@@@@@@@@@@@@",
"@@@@@@@@@@@@@@",
"@@@@@@@@@@@@@@",
"@@@@@@@@@@@@@@",
"@@@@@@@@@@@@@@",
"@@@@@@@@@@@@@@",
"@@@@@@@@@@@@@@",
"@@@@@@@@@@@@@@",
"@@@@@@@@@@@@@@",
"@@@@@@@@@@@@@@",
"@@@#$%&&%$#@@@",
"@@*=-;>>;,=*@@",
"@')!~{]]{^/)'@",
"(_!:<[}}[<|/_#",
"12~34566573891",
"0abcdefgedchi0",
"jklmnoeepqmrkj",
"$kmmnseetumvw$",
"*xyzdegfedABC*",
"DEFGHdnndHIJKD",
"@LMNGAmmAGOMP(",
"@#QMRSTTUJMQ(@",
"@@(VWXkkYWZ(@@",
"@@@@@((((@@@@@",
"@@@@@@@@@@@@@@",
"@@@@@@@@@@@@@@",
"@@@@@@@@@@@@@@",
"@@@@@@@@@@@@@@",
"@@@@@@@@@@@@@@",
"@@@@@@@@@@@@@@",
"@@@@@@@@@@@@@@",
"@@@@@@@@@@@@@@",
"@@@@@@@@@@@@@@",
"@@@@@@@@@@@@@@",
"@@@@@@@@@@@@@@",
"@@@@@@@@@@@@@@",
"@@@@@@@@@@@@@@",
".............."};
