/* XPM */
static char * close_inactive_xpm[] = {
"14 42 55 1",
" 	c None",
".	c #000000",
"+	c #333333",
"@	c #1A1A1A",
"#	c #181818",
"$	c #0E0E0E",
"%	c #060606",
"&	c #020202",
"*	c #121212",
"=	c #090505",
"-	c #490F15",
";	c #821824",
">	c #9E1C2B",
",	c #490E15",
"'	c #131313",
")	c #150709",
"!	c #881926",
"~	c #B71C2A",
"{	c #D21B26",
"]	c #DD1B24",
"^	c #D11B26",
"/	c #871926",
"(	c #191919",
"_	c #0C0808",
":	c #C41C28",
"<	c #E01B24",
"[	c #C41C29",
"}	c #111111",
"|	c #4C1218",
"1	c #B71C2B",
"2	c #4B1118",
"3	c #0D0D0D",
"4	c #841925",
"5	c #831925",
"6	c #0C0C0C",
"7	c #9E1D2C",
"8	c #DD1C24",
"9	c #9D1C2C",
"0	c #851A26",
"a	c #D11C27",
"b	c #851B27",
"c	c #161616",
"d	c #51161D",
"e	c #B61C2B",
"f	c #50161D",
"g	c #171313",
"h	c #8A1C29",
"i	c #C31C28",
"j	c #181515",
"k	c #241618",
"l	c #1A1717",
"m	c #531920",
"n	c #861C28",
"o	c #851C28",
"p	c #1B1818",
"..............",
"++++++++++++++",
"@@@@@@@@@@@@@@",
"@@@@@@@@@@@@@@",
"@@@@@@@@@@@@@@",
"@@@@@@@@@@@@@@",
"@@@@@@@@@@@@@@",
"@@@@@@@@@@@@@@",
"@@@@@@@@@@@@@@",
"@@@@@@@@@@@@@@",
"@@@@@@@@@@@@@@",
"@@@@@@@@@@@@@@",
"@@@@@@@@@@@@@@",
"@@@@@@@@@@@@@@",
"@@@#$%&&%$#@@@",
"@@*=-;>>;,=*@@",
"@')!~{]]^~/)'@",
"(_!:<<<<<<[/_#",
"}|~<<<<<<<<12}",
"34{<<<<<<<<^53",
"67]<<<<<<<<]76",
"$7]<<<<<<<<89$",
"*0^<<<<<<<<ab*",
"cd~<<<<<<<<efc",
"@gh[<<<<<<ihj(",
"@#kh1^]]aehk(@",
"@@(lmn77omp(@@",
"@@@@@((((@@@@@",
"@@@@@@@@@@@@@@",
"@@@@@@@@@@@@@@",
"@@@@@@@@@@@@@@",
"@@@@@@@@@@@@@@",
"@@@@@@@@@@@@@@",
"@@@@@@@@@@@@@@",
"@@@@@@@@@@@@@@",
"@@@@@@@@@@@@@@",
"@@@@@@@@@@@@@@",
"@@@@@@@@@@@@@@",
"@@@@@@@@@@@@@@",
"@@@@@@@@@@@@@@",
"@@@@@@@@@@@@@@",
".............."};
