/* XPM */
static char * close_pressed_xpm[] = {
"14 40 72 1",
" 	c None",
".	c #000000",
"+	c #4D4D4D",
"@	c #1A1A1A",
"#	c #181818",
"$	c #0E0E0E",
"%	c #060606",
"&	c #020202",
"*	c #121212",
"=	c #090505",
"-	c #490F15",
";	c #821824",
">	c #9E1C2B",
",	c #490E15",
"'	c #131313",
")	c #150709",
"!	c #881926",
"~	c #AD1D2B",
"{	c #BA1C29",
"]	c #BF1C28",
"^	c #B91C29",
"/	c #AD1C2B",
"(	c #871926",
"_	c #191919",
":	c #0C0808",
"<	c #B31D2A",
"[	c #BD1C28",
"}	c #BF1B28",
"|	c #C01C28",
"1	c #B31D2B",
"2	c #111111",
"3	c #4C1218",
"4	c #8B1524",
"5	c #901524",
"6	c #BB1C28",
"7	c #8A1523",
"8	c #AD1C2C",
"9	c #4B1118",
"0	c #0D0D0D",
"a	c #841925",
"b	c #861423",
"c	c #8F1624",
"d	c #901624",
"e	c #911524",
"f	c #831925",
"g	c #0C0C0C",
"h	c #9E1D2C",
"i	c #8F1524",
"j	c #8E1523",
"k	c #BB1B27",
"l	c #BE1C28",
"m	c #8E1524",
"n	c #BA1B27",
"o	c #9D1C2C",
"p	c #851A26",
"q	c #BE1B28",
"r	c #B91D2A",
"s	c #851B27",
"t	c #161616",
"u	c #51161D",
"v	c #AC1C2C",
"w	c #50161D",
"x	c #171313",
"y	c #8A1C29",
"z	c #B31C2B",
"A	c #181515",
"B	c #241618",
"C	c #1A1717",
"D	c #531920",
"E	c #861C28",
"F	c #851C28",
"G	c #1B1818",
"..............",
"++++++++++++++",
"@@@@@@@@@@@@@@",
"@@@@@@@@@@@@@@",
"@@@@@@@@@@@@@@",
"@@@@@@@@@@@@@@",
"@@@@@@@@@@@@@@",
"@@@@@@@@@@@@@@",
"@@@@@@@@@@@@@@",
"@@@@@@@@@@@@@@",
"@@@@@@@@@@@@@@",
"@@@@@@@@@@@@@@",
"@@@@@@@@@@@@@@",
"@@@#$%&&%$#@@@",
"@@*=-;>>;,=*@@",
"@')!~{]]^/()'@",
"_:!<[}||}[1(:#",
"23~[456657[892",
"0a{}5bcdbe}^f0",
"gh]|6ibbjk|lhg",
"$h]|6ibbmn|lo$",
"*p^q5bdcbe}rs*",
"tu/[7e66e7lvwt",
"@xy1[}||}[zyA_",
"@#By8^]]rvyB_@",
"@@_CDEhhFDG_@@",
"@@@@@____@@@@@",
"@@@@@@@@@@@@@@",
"@@@@@@@@@@@@@@",
"@@@@@@@@@@@@@@",
"@@@@@@@@@@@@@@",
"@@@@@@@@@@@@@@",
"@@@@@@@@@@@@@@",
"@@@@@@@@@@@@@@",
"@@@@@@@@@@@@@@",
"@@@@@@@@@@@@@@",
"@@@@@@@@@@@@@@",
"@@@@@@@@@@@@@@",
"@@@@@@@@@@@@@@",
".............."};
