/* XPM */
static char * close_active_xpm[] = {
"14 40 72 1",
" 	c None",
".	c #000000",
"+	c #4D4D4D",
"@	c #1A1A1A",
"#	c #181818",
"$	c #0E0E0E",
"%	c #060606",
"&	c #020202",
"*	c #121212",
"=	c #090505",
"-	c #490F15",
";	c #821824",
">	c #9E1C2B",
",	c #490E15",
"'	c #131313",
")	c #150709",
"!	c #881926",
"~	c #BB2431",
"{	c #DB2D37",
"]	c #EA323A",
"^	c #BB2331",
"/	c #871926",
"(	c #191919",
"_	c #0C0808",
":	c #CB2934",
"<	c #ED333B",
"[	c #CB2935",
"}	c #111111",
"|	c #4C1218",
"1	c #EB3038",
"2	c #E6262E",
"3	c #E21F28",
"4	c #E11C25",
"5	c #E31F29",
"6	c #BB2332",
"7	c #4B1118",
"8	c #0D0D0D",
"9	c #841925",
"0	c #DC2731",
"a	c #E01C25",
"b	c #E01B24",
"c	c #DD2731",
"d	c #831925",
"e	c #0C0C0C",
"f	c #9E1D2C",
"g	c #E11D26",
"h	c #E11E27",
"i	c #E01C24",
"j	c #9D1C2C",
"k	c #851A26",
"l	c #DF1E28",
"m	c #DF1F28",
"n	c #851B27",
"o	c #161616",
"p	c #51161D",
"q	c #C7202D",
"r	c #C5212E",
"s	c #50161D",
"t	c #181414",
"u	c #8A1C29",
"v	c #D6222C",
"w	c #D5212B",
"x	c #191616",
"y	c #241618",
"z	c #C6212E",
"A	c #DF1F29",
"B	c #DF2029",
"C	c #1A1717",
"D	c #531920",
"E	c #861C28",
"F	c #851C28",
"G	c #1B1818",
"..............",
"++++++++++++++",
"@@@@@@@@@@@@@@",
"@@@@@@@@@@@@@@",
"@@@@@@@@@@@@@@",
"@@@@@@@@@@@@@@",
"@@@@@@@@@@@@@@",
"@@@@@@@@@@@@@@",
"@@@@@@@@@@@@@@",
"@@@@@@@@@@@@@@",
"@@@@@@@@@@@@@@",
"@@@@@@@@@@@@@@",
"@@@@@@@@@@@@@@",
"@@@#$%&&%$#@@@",
"@@*=-;>>;,=*@@",
"@')!~{]]{^/)'@",
"(_!:<<<<<<[/_#",
"}|~1234452167}",
"890abbbbbbacd8",
"efgbbbbbbbbhfe",
"$fbbbbbbbbbij$",
"*klbbbbbbbbmn*",
"opqbbbbbbbbrso",
"@tuvbbbbbbwux@",
"@#yuzAaaBruy(@",
"@@(CDEffFDG(@@",
"@@@@@((((@@@@@",
"@@@@@@@@@@@@@@",
"@@@@@@@@@@@@@@",
"@@@@@@@@@@@@@@",
"@@@@@@@@@@@@@@",
"@@@@@@@@@@@@@@",
"@@@@@@@@@@@@@@",
"@@@@@@@@@@@@@@",
"@@@@@@@@@@@@@@",
"@@@@@@@@@@@@@@",
"@@@@@@@@@@@@@@",
"@@@@@@@@@@@@@@",
"@@@@@@@@@@@@@@",
".............."};
