/* XPM */
static char * hide_active_xpm[] = {
"14 42 71 1",
" 	c None",
".	c #000000",
"+	c #4D4D4D",
"@	c #1A1A1A",
"#	c #181818",
"$	c #0D0D0D",
"%	c #060606",
"&	c #020202",
"*	c #121212",
"=	c #0A0904",
"-	c #654906",
";	c #B58209",
">	c #DB9E0A",
",	c #644906",
"'	c #131313",
")	c #1C1505",
"!	c #BC8809",
"~	c #EBB923",
"{	c #F4D547",
"]	c #F7E158",
"^	c #F3D448",
"/	c #EBB823",
"(	c #BB8709",
"_	c #0E0D08",
":	c #EFC736",
"<	c #F8E45C",
"[	c #EFC635",
"}	c #111111",
"|	c #684C09",
"1	c #F8E256",
"2	c #F7DB42",
"3	c #F7D635",
"4	c #F7D42F",
"5	c #F7D636",
"6	c #EBB822",
"7	c #664B09",
"8	c #B7840A",
"9	c #F4D43F",
"0	c #F6D32F",
"a	c #F6D32D",
"b	c #F4D440",
"c	c #B5830A",
"d	c #DB9E0B",
"e	c #F6D532",
"f	c #F6D432",
"g	c #0F0F0F",
"h	c #F6D32E",
"i	c #D99D0A",
"j	c #B8850B",
"k	c #F5D332",
"l	c #B7850C",
"m	c #161616",
"n	c #6C510E",
"o	c #EEC026",
"p	c #EEBF25",
"q	c #6B500E",
"r	c #191919",
"s	c #191813",
"t	c #BE8A0C",
"u	c #F2CD30",
"v	c #F2CC30",
"w	c #191814",
"x	c #2B2414",
"y	c #EEC025",
"z	c #F5D334",
"A	c #F6D42F",
"B	c #F5D333",
"C	c #1B1A16",
"D	c #6E5311",
"E	c #B8860D",
"F	c #B7850D",
"..............",
"++++++++++++++",
"@@@@@@@@@@@@@@",
"@@@@@@@@@@@@@@",
"@@@@@@@@@@@@@@",
"@@@@@@@@@@@@@@",
"@@@@@@@@@@@@@@",
"@@@@@@@@@@@@@@",
"@@@@@@@@@@@@@@",
"@@@@@@@@@@@@@@",
"@@@@@@@@@@@@@@",
"@@@@@@@@@@@@@@",
"@@@@@@@@@@@@@@",
"@@@@@@@@@@@@@@",
"@@@#$%&&%$#@@@",
"@@*=-;>>;,=*@@",
"@')!~{]]^/()'@",
"#_!:<<<<<<[(_#",
"}|~1234452167}",
"$890aaaaaa0bc$",
"$deaaaaaaaafd$",
"gdaaaaaaaaahig",
"*jkaaaaaaaakl*",
"mnoaaaaaaaapqm",
"rstuaaaaaavtwr",
"@#xtyzAABptx#@",
"@@rCDEddFDCr@@",
"@@@@rrrrrr@@@@",
"@@@@@@@@@@@@@@",
"@@@@@@@@@@@@@@",
"@@@@@@@@@@@@@@",
"@@@@@@@@@@@@@@",
"@@@@@@@@@@@@@@",
"@@@@@@@@@@@@@@",
"@@@@@@@@@@@@@@",
"@@@@@@@@@@@@@@",
"@@@@@@@@@@@@@@",
"@@@@@@@@@@@@@@",
"@@@@@@@@@@@@@@",
"@@@@@@@@@@@@@@",
"@@@@@@@@@@@@@@",
".............."};
