/* XPM */
static char * hide_inactive_xpm[] = {
"14 42 53 1",
" 	c None",
".	c #000000",
"+	c #333333",
"@	c #1A1A1A",
"#	c #181818",
"$	c #0D0D0D",
"%	c #060606",
"&	c #020202",
"*	c #121212",
"=	c #0A0904",
"-	c #654906",
";	c #B58209",
">	c #DB9E0A",
",	c #644906",
"'	c #131313",
")	c #1C1505",
"!	c #BC8809",
"~	c #EAB315",
"{	c #F2C824",
"]	c #F5D12B",
"^	c #F1C725",
"/	c #BB8709",
"(	c #0E0D08",
"_	c #EEBE1D",
":	c #F6D32D",
"<	c #EEBD1C",
"[	c #111111",
"}	c #684C09",
"|	c #EAB314",
"1	c #664B09",
"2	c #B7840A",
"3	c #B5830A",
"4	c #DB9E0B",
"5	c #F5D02C",
"6	c #0F0F0F",
"7	c #D99D0A",
"8	c #B8850B",
"9	c #F1C724",
"0	c #B7850C",
"a	c #161616",
"b	c #6C510E",
"c	c #EAB214",
"d	c #6B500E",
"e	c #191919",
"f	c #191813",
"g	c #BE8A0C",
"h	c #EDBC1C",
"i	c #191814",
"j	c #2B2414",
"k	c #1B1A16",
"l	c #6E5311",
"m	c #B8860D",
"n	c #B7850D",
"..............",
"++++++++++++++",
"@@@@@@@@@@@@@@",
"@@@@@@@@@@@@@@",
"@@@@@@@@@@@@@@",
"@@@@@@@@@@@@@@",
"@@@@@@@@@@@@@@",
"@@@@@@@@@@@@@@",
"@@@@@@@@@@@@@@",
"@@@@@@@@@@@@@@",
"@@@@@@@@@@@@@@",
"@@@@@@@@@@@@@@",
"@@@@@@@@@@@@@@",
"@@@@@@@@@@@@@@",
"@@@#$%&&%$#@@@",
"@@*=-;>>;,=*@@",
"@')!~{]]^~/)'@",
"#(!_::::::</(#",
"[}~::::::::|1[",
"$2{::::::::^3$",
"$4]::::::::54$",
"64]::::::::576",
"*8^::::::::90*",
"ab~::::::::cda",
"efg<::::::hgie",
"@#jg|^]]9cgj#@",
"@@eklm44nlke@@",
"@@@@eeeeee@@@@",
"@@@@@@@@@@@@@@",
"@@@@@@@@@@@@@@",
"@@@@@@@@@@@@@@",
"@@@@@@@@@@@@@@",
"@@@@@@@@@@@@@@",
"@@@@@@@@@@@@@@",
"@@@@@@@@@@@@@@",
"@@@@@@@@@@@@@@",
"@@@@@@@@@@@@@@",
"@@@@@@@@@@@@@@",
"@@@@@@@@@@@@@@",
"@@@@@@@@@@@@@@",
"@@@@@@@@@@@@@@",
".............."};
