/* XPM */
static char * hide_pressed_xpm[] = {
"14 42 56 1",
" 	c None",
".	c #000000",
"+	c #4D4D4D",
"@	c #1A1A1A",
"#	c #181818",
"$	c #0D0D0D",
"%	c #060606",
"&	c #020202",
"*	c #121212",
"=	c #0A0904",
"-	c #654906",
";	c #B58209",
">	c #DB9E0A",
",	c #644906",
"'	c #131313",
")	c #1C1505",
"!	c #BC8809",
"~	c #EAAE0C",
"{	c #F1BB0E",
"]	c #F4C10F",
"^	c #F1BA0F",
"/	c #BB8709",
"(	c #0E0D08",
"_	c #EEB40E",
":	c #F5C210",
"<	c #EEB40D",
"[	c #111111",
"}	c #684C09",
"|	c #664B09",
"1	c #B7840A",
"2	c #F1BB0F",
"3	c #B5830A",
"4	c #DB9E0B",
"5	c #CC970A",
"6	c #C08A08",
"7	c #CD980A",
"8	c #F5C010",
"9	c #0F0F0F",
"0	c #CD970A",
"a	c #D99D0A",
"b	c #B8850B",
"c	c #B7850C",
"d	c #161616",
"e	c #6C510E",
"f	c #EAAD0C",
"g	c #6B500E",
"h	c #191919",
"i	c #191813",
"j	c #BE8A0C",
"k	c #EDB40D",
"l	c #191814",
"m	c #2B2414",
"n	c #1B1A16",
"o	c #6E5311",
"p	c #B8860D",
"q	c #B7850D",
"..............",
"++++++++++++++",
"@@@@@@@@@@@@@@",
"@@@@@@@@@@@@@@",
"@@@@@@@@@@@@@@",
"@@@@@@@@@@@@@@",
"@@@@@@@@@@@@@@",
"@@@@@@@@@@@@@@",
"@@@@@@@@@@@@@@",
"@@@@@@@@@@@@@@",
"@@@@@@@@@@@@@@",
"@@@@@@@@@@@@@@",
"@@@@@@@@@@@@@@",
"@@@@@@@@@@@@@@",
"@@@#$%&&%$#@@@",
"@@*=-;>>;,=*@@",
"@')!~{]]^~/)'@",
"#(!_::::::</(#",
"[}~::::::::~|[",
"$1{::::::::23$",
"$4]5666666784$",
"94]766666608a9",
"*b^::::::::2c*",
"de~::::::::fgd",
"hij<::::::kjlh",
"@#mj~2]]2fjm#@",
"@@hnop44qonh@@",
"@@@@hhhhhh@@@@",
"@@@@@@@@@@@@@@",
"@@@@@@@@@@@@@@",
"@@@@@@@@@@@@@@",
"@@@@@@@@@@@@@@",
"@@@@@@@@@@@@@@",
"@@@@@@@@@@@@@@",
"@@@@@@@@@@@@@@",
"@@@@@@@@@@@@@@",
"@@@@@@@@@@@@@@",
"@@@@@@@@@@@@@@",
"@@@@@@@@@@@@@@",
"@@@@@@@@@@@@@@",
"@@@@@@@@@@@@@@",
".............."};
