/* XPM */
static char * hide_pressed_xpm[] = {
"14 39 56 1",
" 	c None",
".	c #4D4D4D",
"+	c #1A1A1A",
"@	c #181818",
"#	c #0D0D0D",
"$	c #060606",
"%	c #020202",
"&	c #121212",
"*	c #0A0904",
"=	c #654906",
"-	c #B58209",
";	c #DB9E0A",
">	c #644906",
",	c #131313",
"'	c #1C1505",
")	c #BC8809",
"!	c #EAAE0C",
"~	c #F1BB0E",
"{	c #F4C10F",
"]	c #F1BA0F",
"^	c #BB8709",
"/	c #0E0D08",
"(	c #EEB40E",
"_	c #F5C210",
":	c #EEB40D",
"<	c #111111",
"[	c #684C09",
"}	c #664B09",
"|	c #B7840A",
"1	c #F1BB0F",
"2	c #B5830A",
"3	c #DB9E0B",
"4	c #CC970A",
"5	c #C08A08",
"6	c #CD980A",
"7	c #F5C010",
"8	c #0F0F0F",
"9	c #CD970A",
"0	c #D99D0A",
"a	c #B8850B",
"b	c #B7850C",
"c	c #161616",
"d	c #6C510E",
"e	c #EAAD0C",
"f	c #6B500E",
"g	c #191919",
"h	c #191813",
"i	c #BE8A0C",
"j	c #EDB40D",
"k	c #191814",
"l	c #2B2414",
"m	c #1B1A16",
"n	c #6E5311",
"o	c #B8860D",
"p	c #B7850D",
"q	c #000000",
"..............",
"++++++++++++++",
"++++++++++++++",
"++++++++++++++",
"++++++++++++++",
"++++++++++++++",
"++++++++++++++",
"++++++++++++++",
"++++++++++++++",
"++++++++++++++",
"++++++++++++++",
"++++++++++++++",
"+++@#$%%$#@+++",
"++&*=-;;->*&++",
"+,')!~{{]!^',+",
"@/)(______:^/@",
"<[!________!}<",
"#|~________12#",
"#3{4555555673#",
"83{65555559708",
"&a]________1b&",
"cd!________efc",
"ghi:______jikg",
"+@li!1{{1eil@+",
"++gmno33pnmg++",
"++++gggggg++++",
"++++++++++++++",
"++++++++++++++",
"++++++++++++++",
"++++++++++++++",
"++++++++++++++",
"++++++++++++++",
"++++++++++++++",
"++++++++++++++",
"++++++++++++++",
"++++++++++++++",
"++++++++++++++",
"++++++++++++++",
"qqqqqqqqqqqqqq"};
