/* XPM */
static char * hide_prelight_xpm[] = {
"14 40 75 1",
" 	c None",
".	c #000000",
"+	c #4D4D4D",
"@	c #1A1A1A",
"#	c #181818",
"$	c #0D0D0D",
"%	c #060606",
"&	c #020202",
"*	c #121212",
"=	c #0A0904",
"-	c #654906",
";	c #B58209",
">	c #DB9E0A",
",	c #644906",
"'	c #131313",
")	c #1C1505",
"!	c #BC8809",
"~	c #EBB923",
"{	c #F4D547",
"]	c #F7E158",
"^	c #F3D448",
"/	c #EBB823",
"(	c #BB8709",
"_	c #0E0D08",
":	c #EFC736",
"<	c #F8E45C",
"[	c #EFC635",
"}	c #111111",
"|	c #684C09",
"1	c #F8E256",
"2	c #F7DB42",
"3	c #F7D635",
"4	c #F7D42F",
"5	c #F7D636",
"6	c #EBB822",
"7	c #664B09",
"8	c #B7840A",
"9	c #F4D43F",
"0	c #F6D32F",
"a	c #F6D32D",
"b	c #F4D440",
"c	c #B5830A",
"d	c #DB9E0B",
"e	c #F6D532",
"f	c #CC9B10",
"g	c #C08A08",
"h	c #CD9C11",
"i	c #F6D432",
"j	c #0F0F0F",
"k	c #CD9B11",
"l	c #F6D32E",
"m	c #D99D0A",
"n	c #B8850B",
"o	c #F5D332",
"p	c #B7850C",
"q	c #161616",
"r	c #6C510E",
"s	c #EEC026",
"t	c #EEBF25",
"u	c #6B500E",
"v	c #191919",
"w	c #191813",
"x	c #BE8A0C",
"y	c #F2CD30",
"z	c #F2CC30",
"A	c #191814",
"B	c #2B2414",
"C	c #EEC025",
"D	c #F5D334",
"E	c #F6D42F",
"F	c #F5D333",
"G	c #1B1A16",
"H	c #6E5311",
"I	c #B8860D",
"J	c #B7850D",
"..............",
"++++++++++++++",
"@@@@@@@@@@@@@@",
"@@@@@@@@@@@@@@",
"@@@@@@@@@@@@@@",
"@@@@@@@@@@@@@@",
"@@@@@@@@@@@@@@",
"@@@@@@@@@@@@@@",
"@@@@@@@@@@@@@@",
"@@@@@@@@@@@@@@",
"@@@@@@@@@@@@@@",
"@@@@@@@@@@@@@@",
"@@@@@@@@@@@@@@",
"@@@#$%&&%$#@@@",
"@@*=-;>>;,=*@@",
"@')!~{]]^/()'@",
"#_!:<<<<<<[(_#",
"}|~1234452167}",
"$890aaaaaa0bc$",
"$defgggggghid$",
"jdahggggggklmj",
"*noaaaaaaaaop*",
"qrsaaaaaaaatuq",
"vwxyaaaaaazxAv",
"@#BxCDEEFtxB#@",
"@@vGHIddJHGv@@",
"@@@@vvvvvv@@@@",
"@@@@@@@@@@@@@@",
"@@@@@@@@@@@@@@",
"@@@@@@@@@@@@@@",
"@@@@@@@@@@@@@@",
"@@@@@@@@@@@@@@",
"@@@@@@@@@@@@@@",
"@@@@@@@@@@@@@@",
"@@@@@@@@@@@@@@",
"@@@@@@@@@@@@@@",
"@@@@@@@@@@@@@@",
"@@@@@@@@@@@@@@",
"@@@@@@@@@@@@@@",
".............."};
