/* XPM */
static char * maximize_toggled_active_xpm[] = {
"14 42 70 1",
" 	c None",
".	c #000000",
"+	c #4D4D4D",
"@	c #1A1A1A",
"#	c #181818",
"$	c #0D0D0D",
"%	c #060606",
"&	c #020202",
"*	c #121212",
"=	c #050807",
"-	c #11442D",
";	c #1C794F",
">	c #21925F",
",	c #11432C",
"'	c #131313",
")	c #09150F",
"!	c #1E7E52",
"~	c #33B06E",
"{	c #4BD17F",
"]	c #55E087",
"^	c #4AD080",
"/	c #32B06E",
"(	c #1D7D51",
"_	c #090C0B",
":	c #1F7F53",
"<	c #3EC077",
"[	c #57E389",
"}	c #3EBF76",
"|	c #111111",
"1	c #144730",
"2	c #52E187",
"3	c #44D981",
"4	c #39D47C",
"5	c #35D27B",
"6	c #3AD47D",
"7	c #33AF6E",
"8	c #14462F",
"9	c #1F7C51",
"0	c #43D17E",
"a	c #34D17A",
"b	c #33D17A",
"c	c #43D07D",
"d	c #1E7A50",
"e	c #22935F",
"f	c #36D27C",
"g	c #37D27B",
"h	c #0F0F0F",
"i	c #33D27A",
"j	c #239360",
"k	c #207D52",
"l	c #37D17B",
"m	c #1F7B51",
"n	c #161616",
"o	c #1A4C35",
"p	c #33BA72",
"q	c #33B972",
"r	c #191919",
"s	c #141716",
"t	c #208054",
"u	c #39C979",
"v	c #39C879",
"w	c #151816",
"x	c #17231D",
"y	c #218155",
"z	c #39D17B",
"A	c #35D17A",
"B	c #171A18",
"C	c #1D4F38",
"D	c #217D53",
"E	c #239460",
"..............",
"++++++++++++++",
"@@@@@@@@@@@@@@",
"@@@@@@@@@@@@@@",
"@@@@@@@@@@@@@@",
"@@@@@@@@@@@@@@",
"@@@@@@@@@@@@@@",
"@@@@@@@@@@@@@@",
"@@@@@@@@@@@@@@",
"@@@@@@@@@@@@@@",
"@@@@@@@@@@@@@@",
"@@@@@@@@@@@@@@",
"@@@@@@@@@@@@@@",
"@@@@@@@@@@@@@@",
"@@@#$%&&%$#@@@",
"@@*=-;>>;,=*@@",
"@')!~{]]^/()'@",
"#_:<[[[[[[}!_#",
"|1~2345563278|",
"$90abbbbbbacd$",
"$efbbbbbbbbge$",
"heabbbbbbbbijh",
"*klbbbbbbbblm*",
"nopbbbbbbbbqon",
"rstubbbbbbvtwr",
"@#xypzAAzqyx#@",
"@@rBCDEEDCBr@@",
"@@@@rrrrrr@@@@",
"@@@@@@@@@@@@@@",
"@@@@@@@@@@@@@@",
"@@@@@@@@@@@@@@",
"@@@@@@@@@@@@@@",
"@@@@@@@@@@@@@@",
"@@@@@@@@@@@@@@",
"@@@@@@@@@@@@@@",
"@@@@@@@@@@@@@@",
"@@@@@@@@@@@@@@",
"@@@@@@@@@@@@@@",
"@@@@@@@@@@@@@@",
"@@@@@@@@@@@@@@",
"@@@@@@@@@@@@@@",
".............."};
