/* XPM */
static char * maximize_prelight_xpm[] = {
"14 42 73 1",
" 	c None",
".	c #000000",
"+	c #4D4D4D",
"@	c #1A1A1A",
"#	c #181818",
"$	c #0D0D0D",
"%	c #060606",
"&	c #020202",
"*	c #121212",
"=	c #050807",
"-	c #11442D",
";	c #1C794F",
">	c #21925F",
",	c #11432C",
"'	c #131313",
")	c #09150F",
"!	c #1E7E52",
"~	c #33B06E",
"{	c #4BD17F",
"]	c #55E087",
"^	c #4AD080",
"/	c #32B06E",
"(	c #1D7D51",
"_	c #090C0B",
":	c #1F7F53",
"<	c #3EC077",
"[	c #57E389",
"}	c #2B9860",
"|	c #3EBF76",
"1	c #111111",
"2	c #144730",
"3	c #52E187",
"4	c #44D981",
"5	c #39D47C",
"6	c #1E8254",
"7	c #3AD47D",
"8	c #33AF6E",
"9	c #14462F",
"0	c #1F7C51",
"a	c #43D17E",
"b	c #34D17A",
"c	c #33D17A",
"d	c #43D07D",
"e	c #1E7A50",
"f	c #22935F",
"g	c #36D27C",
"h	c #23945D",
"i	c #37D27B",
"j	c #0F0F0F",
"k	c #23955D",
"l	c #33D27A",
"m	c #239360",
"n	c #207D52",
"o	c #37D17B",
"p	c #1F7B51",
"q	c #161616",
"r	c #1A4C35",
"s	c #33BA72",
"t	c #33B972",
"u	c #191919",
"v	c #141716",
"w	c #208054",
"x	c #39C979",
"y	c #39C879",
"z	c #151816",
"A	c #17231D",
"B	c #218155",
"C	c #39D17B",
"D	c #35D17A",
"E	c #171A18",
"F	c #1D4F38",
"G	c #217D53",
"H	c #239460",
"..............",
"++++++++++++++",
"@@@@@@@@@@@@@@",
"@@@@@@@@@@@@@@",
"@@@@@@@@@@@@@@",
"@@@@@@@@@@@@@@",
"@@@@@@@@@@@@@@",
"@@@@@@@@@@@@@@",
"@@@@@@@@@@@@@@",
"@@@@@@@@@@@@@@",
"@@@@@@@@@@@@@@",
"@@@@@@@@@@@@@@",
"@@@@@@@@@@@@@@",
"@@@@@@@@@@@@@@",
"@@@#$%&&%$#@@@",
"@@*=-;>>;,=*@@",
"@')!~{]]^/()'@",
"#_:<[[}}[[|!_#",
"12~34566743891",
"$0abcc66ccbde$",
"$fgh666666hif$",
"jfbh666666klmj",
"*noccc66cccop*",
"qrsccc66ccctrq",
"uvwxcchkccywzu",
"@#ABsCDDCtBA#@",
"@@uEFGHHGFEu@@",
"@@@@uuuuuu@@@@",
"@@@@@@@@@@@@@@",
"@@@@@@@@@@@@@@",
"@@@@@@@@@@@@@@",
"@@@@@@@@@@@@@@",
"@@@@@@@@@@@@@@",
"@@@@@@@@@@@@@@",
"@@@@@@@@@@@@@@",
"@@@@@@@@@@@@@@",
"@@@@@@@@@@@@@@",
"@@@@@@@@@@@@@@",
"@@@@@@@@@@@@@@",
"@@@@@@@@@@@@@@",
"@@@@@@@@@@@@@@",
".............."};
