/* XPM */
static char * maximize_toggled_inactive_xpm[] = {
"14 42 59 1",
" 	c None",
".	c #000000",
"+	c #333333",
"@	c #1A1A1A",
"#	c #181818",
"$	c #0D0D0D",
"%	c #060606",
"&	c #020202",
"*	c #121212",
"=	c #050807",
"-	c #11442D",
";	c #1C794F",
">	c #21925F",
",	c #11432C",
"'	c #131313",
")	c #09150F",
"!	c #1E7E52",
"~	c #28AB6A",
"{	c #2FC374",
"]	c #33CF79",
"^	c #27AA6A",
"/	c #1D7D51",
"(	c #090C0B",
"_	c #1F7F53",
":	c #2BB66F",
"<	c #33D17A",
"[	c #2CB66F",
"}	c #111111",
"|	c #144730",
"1	c #28A969",
"2	c #14462F",
"3	c #1F7C51",
"4	c #2FC375",
"5	c #1E7A50",
"6	c #22935F",
"7	c #33CE79",
"8	c #32CE79",
"9	c #0F0F0F",
"0	c #32CE78",
"a	c #239360",
"b	c #207D52",
"c	c #2FC474",
"d	c #1F7B51",
"e	c #161616",
"f	c #1A4C35",
"g	c #28AA6B",
"h	c #191919",
"i	c #141716",
"j	c #208054",
"k	c #2CB770",
"l	c #2CB670",
"m	c #151816",
"n	c #17231D",
"o	c #218155",
"p	c #28AA6A",
"q	c #171A18",
"r	c #1D4F38",
"s	c #217D53",
"t	c #239460",
"..............",
"++++++++++++++",
"@@@@@@@@@@@@@@",
"@@@@@@@@@@@@@@",
"@@@@@@@@@@@@@@",
"@@@@@@@@@@@@@@",
"@@@@@@@@@@@@@@",
"@@@@@@@@@@@@@@",
"@@@@@@@@@@@@@@",
"@@@@@@@@@@@@@@",
"@@@@@@@@@@@@@@",
"@@@@@@@@@@@@@@",
"@@@@@@@@@@@@@@",
"@@@@@@@@@@@@@@",
"@@@#$%&&%$#@@@",
"@@*=-;>>;,=*@@",
"@')!~{]]{^/)'@",
"#(_:<<<<<<[!(#",
"}|~<<<<<<<<12}",
"$34<<<<<<<<{5$",
"$67<<<<<<<<86$",
"967<<<<<<<<0a9",
"*bc<<<<<<<<{d*",
"efg<<<<<<<<gfe",
"hijk<<<<<<ljmh",
"@#nop{77{gon#@",
"@@hqrsttsrqh@@",
"@@@@hhhhhh@@@@",
"@@@@@@@@@@@@@@",
"@@@@@@@@@@@@@@",
"@@@@@@@@@@@@@@",
"@@@@@@@@@@@@@@",
"@@@@@@@@@@@@@@",
"@@@@@@@@@@@@@@",
"@@@@@@@@@@@@@@",
"@@@@@@@@@@@@@@",
"@@@@@@@@@@@@@@",
"@@@@@@@@@@@@@@",
"@@@@@@@@@@@@@@",
"@@@@@@@@@@@@@@",
"@@@@@@@@@@@@@@",
".............."};
