/* XPM */
static char * maximize_toggled_prelight_xpm[] = {
"14 42 75 1",
" 	c None",
".	c #000000",
"+	c #4D4D4D",
"@	c #1A1A1A",
"#	c #181818",
"$	c #0D0D0D",
"%	c #060606",
"&	c #020202",
"*	c #121212",
"=	c #050807",
"-	c #11442D",
";	c #1C794F",
">	c #21925F",
",	c #11432C",
"'	c #131313",
")	c #09150F",
"!	c #1E7E52",
"~	c #33B06E",
"{	c #4BD17F",
"]	c #55E087",
"^	c #4AD080",
"/	c #32B06E",
"(	c #1D7D51",
"_	c #090C0B",
":	c #1F7F53",
"<	c #3EC077",
"[	c #57E389",
"}	c #3EBF76",
"|	c #111111",
"1	c #144730",
"2	c #52E187",
"3	c #44D981",
"4	c #39D47C",
"5	c #35D27B",
"6	c #3AD47D",
"7	c #33AF6E",
"8	c #14462F",
"9	c #1F7C51",
"0	c #43D17E",
"a	c #34D17A",
"b	c #33D17A",
"c	c #2DBA6F",
"d	c #208A58",
"e	c #218B58",
"f	c #43D07D",
"g	c #1E7A50",
"h	c #22935F",
"i	c #36D27C",
"j	c #1E8254",
"k	c #37D27B",
"l	c #0F0F0F",
"m	c #33D27A",
"n	c #239360",
"o	c #207D52",
"p	c #37D17B",
"q	c #2DBB70",
"r	c #1F7B51",
"s	c #161616",
"t	c #1A4C35",
"u	c #33BA72",
"v	c #33B972",
"w	c #191919",
"x	c #141716",
"y	c #208054",
"z	c #39C979",
"A	c #39C879",
"B	c #151816",
"C	c #17231D",
"D	c #218155",
"E	c #39D17B",
"F	c #35D17A",
"G	c #171A18",
"H	c #1D4F38",
"I	c #217D53",
"J	c #239460",
"..............",
"++++++++++++++",
"@@@@@@@@@@@@@@",
"@@@@@@@@@@@@@@",
"@@@@@@@@@@@@@@",
"@@@@@@@@@@@@@@",
"@@@@@@@@@@@@@@",
"@@@@@@@@@@@@@@",
"@@@@@@@@@@@@@@",
"@@@@@@@@@@@@@@",
"@@@@@@@@@@@@@@",
"@@@@@@@@@@@@@@",
"@@@@@@@@@@@@@@",
"@@@@@@@@@@@@@@",
"@@@#$%&&%$#@@@",
"@@*=-;>>;,=*@@",
"@')!~{]]^/()'@",
"#_:<[[[[[[}!_#",
"|1~2345563278|",
"$90abcdecbafg$",
"$hibbejjebbkh$",
"lhabbejjebbmnl",
"*opbbceeqbbpr*",
"stubbbbbbbbvts",
"wxyzbbbbbbAyBw",
"@#CDuEFFEvDC#@",
"@@wGHIJJIHGw@@",
"@@@@wwwwww@@@@",
"@@@@@@@@@@@@@@",
"@@@@@@@@@@@@@@",
"@@@@@@@@@@@@@@",
"@@@@@@@@@@@@@@",
"@@@@@@@@@@@@@@",
"@@@@@@@@@@@@@@",
"@@@@@@@@@@@@@@",
"@@@@@@@@@@@@@@",
"@@@@@@@@@@@@@@",
"@@@@@@@@@@@@@@",
"@@@@@@@@@@@@@@",
"@@@@@@@@@@@@@@",
"@@@@@@@@@@@@@@",
".............."};
