/* XPM */
static char * maximize_pressed_xpm[] = {
"14 42 59 1",
" 	c None",
".	c #000000",
"+	c #4D4D4D",
"@	c #1A1A1A",
"#	c #181818",
"$	c #0D0D0D",
"%	c #060606",
"&	c #020202",
"*	c #121212",
"=	c #050807",
"-	c #11442D",
";	c #1C794F",
">	c #21925F",
",	c #11432C",
"'	c #131313",
")	c #09150F",
"!	c #1E7E52",
"~	c #26A66B",
"{	c #2CB877",
"]	c #2EC17D",
"^	c #2BB777",
"/	c #1D7D51",
"(	c #090C0B",
"_	c #1F7F53",
":	c #29AE71",
"<	c #2EC27E",
"[	c #21905E",
"}	c #22915E",
"|	c #111111",
"1	c #144730",
"2	c #1E8254",
"3	c #27A56B",
"4	c #14462F",
"5	c #1F7C51",
"6	c #2CB878",
"7	c #2BB877",
"8	c #1E7A50",
"9	c #22935F",
"0	c #2EC07D",
"a	c #0F0F0F",
"b	c #2DBF7C",
"c	c #239360",
"d	c #207D52",
"e	c #1F7B51",
"f	c #161616",
"g	c #1A4C35",
"h	c #27A66C",
"i	c #191919",
"j	c #141716",
"k	c #208054",
"l	c #29AF72",
"m	c #2AAF72",
"n	c #151816",
"o	c #17231D",
"p	c #218155",
"q	c #171A18",
"r	c #1D4F38",
"s	c #217D53",
"t	c #239460",
"..............",
"++++++++++++++",
"@@@@@@@@@@@@@@",
"@@@@@@@@@@@@@@",
"@@@@@@@@@@@@@@",
"@@@@@@@@@@@@@@",
"@@@@@@@@@@@@@@",
"@@@@@@@@@@@@@@",
"@@@@@@@@@@@@@@",
"@@@@@@@@@@@@@@",
"@@@@@@@@@@@@@@",
"@@@@@@@@@@@@@@",
"@@@@@@@@@@@@@@",
"@@@@@@@@@@@@@@",
"@@@#$%&&%$#@@@",
"@@*=-;>>;,=*@@",
"@')!~{]]^~/)'@",
"#(_:<<[}<<:!(#",
"|1~<<<22<<<34|",
"$56<<<22<<<78$",
"$90[222222}09$",
"a90}222222}bca",
"*d7<<<22<<<7e*",
"fgh<<<22<<<hgf",
"ijkl<<}}<<mkni",
"@#oph7007hpo#@",
"@@iqrsttsrqi@@",
"@@@@iiiiii@@@@",
"@@@@@@@@@@@@@@",
"@@@@@@@@@@@@@@",
"@@@@@@@@@@@@@@",
"@@@@@@@@@@@@@@",
"@@@@@@@@@@@@@@",
"@@@@@@@@@@@@@@",
"@@@@@@@@@@@@@@",
"@@@@@@@@@@@@@@",
"@@@@@@@@@@@@@@",
"@@@@@@@@@@@@@@",
"@@@@@@@@@@@@@@",
"@@@@@@@@@@@@@@",
"@@@@@@@@@@@@@@",
".............."};
