/* XPM */
static char * maximize_toggled_pressed_xpm[] = {
"14 40 60 1",
" 	c None",
".	c #000000",
"+	c #4D4D4D",
"@	c #1A1A1A",
"#	c #181818",
"$	c #0D0D0D",
"%	c #060606",
"&	c #020202",
"*	c #121212",
"=	c #050807",
"-	c #11442D",
";	c #1C794F",
">	c #21925F",
",	c #11432C",
"'	c #131313",
")	c #09150F",
"!	c #1E7E52",
"~	c #26A66B",
"{	c #2CB877",
"]	c #2EC17D",
"^	c #2BB777",
"/	c #1D7D51",
"(	c #090C0B",
"_	c #1F7F53",
":	c #29AE71",
"<	c #2EC27E",
"[	c #111111",
"}	c #144730",
"|	c #27A56B",
"1	c #14462F",
"2	c #1F7C51",
"3	c #2CB878",
"4	c #29AF72",
"5	c #208958",
"6	c #208959",
"7	c #2AAF72",
"8	c #2BB877",
"9	c #1E7A50",
"0	c #22935F",
"a	c #2EC07D",
"b	c #1E8254",
"c	c #0F0F0F",
"d	c #2DBF7C",
"e	c #239360",
"f	c #207D52",
"g	c #29B072",
"h	c #1F7B51",
"i	c #161616",
"j	c #1A4C35",
"k	c #27A66C",
"l	c #191919",
"m	c #141716",
"n	c #208054",
"o	c #151816",
"p	c #17231D",
"q	c #218155",
"r	c #171A18",
"s	c #1D4F38",
"t	c #217D53",
"u	c #239460",
"..............",
"++++++++++++++",
"@@@@@@@@@@@@@@",
"@@@@@@@@@@@@@@",
"@@@@@@@@@@@@@@",
"@@@@@@@@@@@@@@",
"@@@@@@@@@@@@@@",
"@@@@@@@@@@@@@@",
"@@@@@@@@@@@@@@",
"@@@@@@@@@@@@@@",
"@@@@@@@@@@@@@@",
"@@@@@@@@@@@@@@",
"@@@@@@@@@@@@@@",
"@@@#$%&&%$#@@@",
"@@*=-;>>;,=*@@",
"@')!~{]]^~/)'@",
"#(_:<<<<<<:!(#",
"[}~<<<<<<<<|1[",
"$23<<4567<<89$",
"$0a<<6bb5<<a0$",
"c0a<<6bb5<<dec",
"*f8<<765g<<8h*",
"ijk<<<<<<<<kji",
"lmn4<<<<<<7nol",
"@#pqk8aa8kqp#@",
"@@lrstuutsrl@@",
"@@@@llllll@@@@",
"@@@@@@@@@@@@@@",
"@@@@@@@@@@@@@@",
"@@@@@@@@@@@@@@",
"@@@@@@@@@@@@@@",
"@@@@@@@@@@@@@@",
"@@@@@@@@@@@@@@",
"@@@@@@@@@@@@@@",
"@@@@@@@@@@@@@@",
"@@@@@@@@@@@@@@",
"@@@@@@@@@@@@@@",
"@@@@@@@@@@@@@@",
"@@@@@@@@@@@@@@",
".............."};
