/* XPM */
static char * menu_pressed_xpm[] = {
"22 40 39 1",
" 	c None",
".	c #000000",
"+	c #4D4D4D",
"@	c #1A1A1A",
"#	c #181818",
"$	c #0D0D0D",
"%	c #060606",
"&	c #020202",
"*	c #010101",
"=	c #121212",
"-	c #050505",
";	c #292929",
">	c #313131",
",	c #333333",
"'	c #131313",
")	c #090909",
"!	c #2B2B2B",
"~	c #3B3B3B",
"{	c #474747",
"]	c #4C4C4C",
"^	c #2A2A2A",
"/	c #3D3D3D",
"(	c #343434",
"_	c #111111",
":	c #1B1B1B",
"<	c #373737",
"[	c #353535",
"}	c #363636",
"|	c #323232",
"1	c #0F0F0F",
"2	c #2C2C2C",
"3	c #161616",
"4	c #202020",
"5	c #191919",
"6	c #141414",
"7	c #2D2D2D",
"8	c #151515",
"9	c #171717",
"0	c #232323",
"......................",
"++++++++++++++++++++++",
"@@@@@@@@@@@@@@@@@@@@@@",
"@@@@@@@@@@@@@@@@@@@@@@",
"@@@@@@@@@@@@@@@@@@@@@@",
"@@@@@@@@@@@@@@@@@@@@@@",
"@@@@@@@@@@@@@@@@@@@@@@",
"@@@@@@@@@@@@@@@@@@@@@@",
"@@@@@@@@@@@@@@@@@@@@@@",
"@@@@@@@@@@@@@@@@@@@@@@",
"@@@@@@@@@@@@@@@@@@@@@@",
"@@@@@@@@@@@@@@@@@@@@@@",
"@@@@@@@@@@@@@@@@@@@@@@",
"@@@#$%&********&%$#@@@",
"@@=-#;>,,,,,,,,>;#-=@@",
"@')!~{]++++++++]{~^)'@",
"#)!/~(,,,,,,,,,,(~/^)#",
"_:<[,,,,,,,,,,,,,,[}:_",
"$^[,,,,,,,,,,,,,,,,[^$",
"$|,,,,,,,,,,,,,,,,,,|$",
"1|,,,,,,,,,,,,,,,,,,>1",
"=!,,,,,,,,,,,,,,,,,,2=",
"34,,,,,,,,,,,,,,,,,,43",
"567,,,,,,,,,,,,,,,,785",
"@##7,,,,,,,,,,,,,,7##@",
"@@5907|,,,,,,,,|7095@@",
"@@@@55555555555555@@@@",
"@@@@@@@@@@@@@@@@@@@@@@",
"@@@@@@@@@@@@@@@@@@@@@@",
"@@@@@@@@@@@@@@@@@@@@@@",
"@@@@@@@@@@@@@@@@@@@@@@",
"@@@@@@@@@@@@@@@@@@@@@@",
"@@@@@@@@@@@@@@@@@@@@@@",
"@@@@@@@@@@@@@@@@@@@@@@",
"@@@@@@@@@@@@@@@@@@@@@@",
"@@@@@@@@@@@@@@@@@@@@@@",
"@@@@@@@@@@@@@@@@@@@@@@",
"@@@@@@@@@@@@@@@@@@@@@@",
"@@@@@@@@@@@@@@@@@@@@@@",
"......................"};
