/* XPM */
static char * menu_active_xpm[] = {
"22 40 48 1",
" 	c None",
".	c #000000",
"+	c #4D4D4D",
"@	c #1A1A1A",
"#	c #181818",
"$	c #0D0D0D",
"%	c #060606",
"&	c #020202",
"*	c #010101",
"=	c #121212",
"-	c #050505",
";	c #292929",
">	c #313131",
",	c #333333",
"'	c #131313",
")	c #090909",
"!	c #2B2B2B",
"~	c #565656",
"{	c #767676",
"]	c #7E7E7E",
"^	c #808080",
"/	c #2A2A2A",
"(	c #616161",
"_	c #6E6E6E",
":	c #686868",
"<	c #666666",
"[	c #606060",
"}	c #111111",
"|	c #1B1B1B",
"1	c #4C4C4C",
"2	c #4B4B4B",
"3	c #5C5C5C",
"4	c #323232",
"5	c #636363",
"6	c #646464",
"7	c #0F0F0F",
"8	c #595959",
"9	c #2C2C2C",
"0	c #161616",
"a	c #202020",
"b	c #434343",
"c	c #424242",
"d	c #191919",
"e	c #141414",
"f	c #2D2D2D",
"g	c #151515",
"h	c #171717",
"i	c #232323",
"......................",
"++++++++++++++++++++++",
"@@@@@@@@@@@@@@@@@@@@@@",
"@@@@@@@@@@@@@@@@@@@@@@",
"@@@@@@@@@@@@@@@@@@@@@@",
"@@@@@@@@@@@@@@@@@@@@@@",
"@@@@@@@@@@@@@@@@@@@@@@",
"@@@@@@@@@@@@@@@@@@@@@@",
"@@@@@@@@@@@@@@@@@@@@@@",
"@@@@@@@@@@@@@@@@@@@@@@",
"@@@@@@@@@@@@@@@@@@@@@@",
"@@@@@@@@@@@@@@@@@@@@@@",
"@@@@@@@@@@@@@@@@@@@@@@",
"@@@#$%&********&%$#@@@",
"@@=-#;>,,,,,,,,>;#-=@@",
"@')!~{]^^^^^^^^]{~/)'@",
"#)!(_:<<<<<<<<<<:_[/)#",
"}|1:<<<<<<<<<<<<<<:2|}",
"$/3<<<<<<<<<<<<<<<<3/$",
"$45<<<<<<<<<<<<<<<<64$",
"745<<<<<<<<<<<<<<<<5>7",
"=!8<<<<<<<<<<<<<<<<89=",
"0ab<<<<<<<<<<<<<<<<ca0",
"def+<<<<<<<<<<<<<<+fgd",
"@##fc85<<<<<<<<58cf##@",
"@@dhif4,,,,,,,,4fihd@@",
"@@@@dddddddddddddd@@@@",
"@@@@@@@@@@@@@@@@@@@@@@",
"@@@@@@@@@@@@@@@@@@@@@@",
"@@@@@@@@@@@@@@@@@@@@@@",
"@@@@@@@@@@@@@@@@@@@@@@",
"@@@@@@@@@@@@@@@@@@@@@@",
"@@@@@@@@@@@@@@@@@@@@@@",
"@@@@@@@@@@@@@@@@@@@@@@",
"@@@@@@@@@@@@@@@@@@@@@@",
"@@@@@@@@@@@@@@@@@@@@@@",
"@@@@@@@@@@@@@@@@@@@@@@",
"@@@@@@@@@@@@@@@@@@@@@@",
"@@@@@@@@@@@@@@@@@@@@@@",
"......................"};
