/* XPM */
static char * menu_inactive_xpm[] = {
"22 40 38 1",
" 	c None",
".	c #000000",
"+	c #333333",
"@	c #1A1A1A",
"#	c #181818",
"$	c #0D0D0D",
"%	c #060606",
"&	c #020202",
"*	c #010101",
"=	c #121212",
"-	c #050505",
";	c #292929",
">	c #313131",
",	c #131313",
"'	c #090909",
")	c #2B2B2B",
"!	c #3B3B3B",
"~	c #474747",
"{	c #4C4C4C",
"]	c #4D4D4D",
"^	c #2A2A2A",
"/	c #414141",
"(	c #404040",
"_	c #111111",
":	c #1B1B1B",
"<	c #464646",
"[	c #323232",
"}	c #4B4B4B",
"|	c #0F0F0F",
"1	c #2C2C2C",
"2	c #161616",
"3	c #202020",
"4	c #191919",
"5	c #141414",
"6	c #2D2D2D",
"7	c #151515",
"8	c #171717",
"9	c #232323",
"......................",
"++++++++++++++++++++++",
"@@@@@@@@@@@@@@@@@@@@@@",
"@@@@@@@@@@@@@@@@@@@@@@",
"@@@@@@@@@@@@@@@@@@@@@@",
"@@@@@@@@@@@@@@@@@@@@@@",
"@@@@@@@@@@@@@@@@@@@@@@",
"@@@@@@@@@@@@@@@@@@@@@@",
"@@@@@@@@@@@@@@@@@@@@@@",
"@@@@@@@@@@@@@@@@@@@@@@",
"@@@@@@@@@@@@@@@@@@@@@@",
"@@@@@@@@@@@@@@@@@@@@@@",
"@@@@@@@@@@@@@@@@@@@@@@",
"@@@#$%&********&%$#@@@",
"@@=-#;>++++++++>;#-=@@",
"@,')!~{]]]]]]]]{~!^',@",
"#')/]]]]]]]]]]]]]](^'#",
"_:!]]]]]]]]]]]]]]]]!:_",
"$^~]]]]]]]]]]]]]]]]<^$",
"$[}]]]]]]]]]]]]]]]]{[$",
"|[}]]]]]]]]]]]]]]]]{>|",
"=)~]]]]]]]]]]]]]]]]<1=",
"23!]]]]]]]]]]]]]]]]!32",
"456(]]]]]]]]]]]]]]/674",
"@##6!<}]]]]]]]]}<!6##@",
"@@4896[++++++++[6984@@",
"@@@@44444444444444@@@@",
"@@@@@@@@@@@@@@@@@@@@@@",
"@@@@@@@@@@@@@@@@@@@@@@",
"@@@@@@@@@@@@@@@@@@@@@@",
"@@@@@@@@@@@@@@@@@@@@@@",
"@@@@@@@@@@@@@@@@@@@@@@",
"@@@@@@@@@@@@@@@@@@@@@@",
"@@@@@@@@@@@@@@@@@@@@@@",
"@@@@@@@@@@@@@@@@@@@@@@",
"@@@@@@@@@@@@@@@@@@@@@@",
"@@@@@@@@@@@@@@@@@@@@@@",
"@@@@@@@@@@@@@@@@@@@@@@",
"@@@@@@@@@@@@@@@@@@@@@@",
"''''''''''''''''''''''"};
