/* XPM */
static char * menu_prelight_xpm[] = {
"22 40 52 1",
" 	c None",
".	c #000000",
"+	c #4D4D4D",
"@	c #1A1A1A",
"#	c #181818",
"$	c #0D0D0D",
"%	c #060606",
"&	c #020202",
"*	c #010101",
"=	c #121212",
"-	c #050505",
";	c #292929",
">	c #313131",
",	c #333333",
"'	c #131313",
")	c #090909",
"!	c #2B2B2B",
"~	c #636363",
"{	c #8E8E8E",
"]	c #979797",
"^	c #999999",
"/	c #2A2A2A",
"(	c #737373",
"_	c #878787",
":	c #818181",
"<	c #808080",
"[	c #888888",
"}	c #111111",
"|	c #1B1B1B",
"1	c #575757",
"2	c #828282",
"3	c #565656",
"4	c #707070",
"5	c #6F6F6F",
"6	c #323232",
"7	c #7D7D7D",
"8	c #0F0F0F",
"9	c #7C7C7C",
"0	c #6D6D6D",
"a	c #6C6C6C",
"b	c #2C2C2C",
"c	c #161616",
"d	c #202020",
"e	c #4B4B4B",
"f	c #4A4A4A",
"g	c #191919",
"h	c #141414",
"i	c #2D2D2D",
"j	c #5B5B5B",
"k	c #151515",
"l	c #171717",
"m	c #232323",
"......................",
"++++++++++++++++++++++",
"@@@@@@@@@@@@@@@@@@@@@@",
"@@@@@@@@@@@@@@@@@@@@@@",
"@@@@@@@@@@@@@@@@@@@@@@",
"@@@@@@@@@@@@@@@@@@@@@@",
"@@@@@@@@@@@@@@@@@@@@@@",
"@@@@@@@@@@@@@@@@@@@@@@",
"@@@@@@@@@@@@@@@@@@@@@@",
"@@@@@@@@@@@@@@@@@@@@@@",
"@@@@@@@@@@@@@@@@@@@@@@",
"@@@@@@@@@@@@@@@@@@@@@@",
"@@@@@@@@@@@@@@@@@@@@@@",
"@@@#$%&********&%$#@@@",
"@@=-#;>,,,,,,,,>;#-=@@",
"@')!~{]^^^^^^^^]{~/)'@",
"#)!(_:<<<<<<<<<<:[(/)#",
"}|12<<<<<<<<<<<<<<23|}",
"$/4<<<<<<<<<<<<<<<<5/$",
"$67<<<<<<<<<<<<<<<<76$",
"869<<<<<<<<<<<<<<<<9>8",
"=!0<<<<<<<<<<<<<<<<ab=",
"cde<<<<<<<<<<<<<<<<fdc",
"ghij<<<<<<<<<<<<<<jikg",
"@##ifa9<<<<<<<<9afi##@",
"@@glmi6,,,,,,,,6imlg@@",
"@@@@gggggggggggggg@@@@",
"@@@@@@@@@@@@@@@@@@@@@@",
"@@@@@@@@@@@@@@@@@@@@@@",
"@@@@@@@@@@@@@@@@@@@@@@",
"@@@@@@@@@@@@@@@@@@@@@@",
"@@@@@@@@@@@@@@@@@@@@@@",
"@@@@@@@@@@@@@@@@@@@@@@",
"@@@@@@@@@@@@@@@@@@@@@@",
"@@@@@@@@@@@@@@@@@@@@@@",
"@@@@@@@@@@@@@@@@@@@@@@",
"@@@@@@@@@@@@@@@@@@@@@@",
"@@@@@@@@@@@@@@@@@@@@@@",
"@@@@@@@@@@@@@@@@@@@@@@",
"......................"};
