/* XPM */
static char * stick_inactive_xpm[] = {
"14 40 37 1",
" 	c None",
".	c #000000",
"+	c #333333",
"@	c #1A1A1A",
"#	c #181818",
"$	c #0E0E0E",
"%	c #060606",
"&	c #020202",
"*	c #121212",
"=	c #050505",
"-	c #292929",
";	c #313131",
">	c #131313",
",	c #090909",
"'	c #2B2B2B",
")	c #3B3B3B",
"!	c #474747",
"~	c #4C4C4C",
"{	c #2A2A2A",
"]	c #191919",
"^	c #414141",
"/	c #4D4D4D",
"(	c #404040",
"_	c #111111",
":	c #1B1B1B",
"<	c #0D0D0D",
"[	c #464646",
"}	c #0C0C0C",
"|	c #323232",
"1	c #4B4B4B",
"2	c #2C2C2C",
"3	c #161616",
"4	c #202020",
"5	c #141414",
"6	c #2D2D2D",
"7	c #171717",
"8	c #232323",
"..............",
"++++++++++++++",
"@@@@@@@@@@@@@@",
"@@@@@@@@@@@@@@",
"@@@@@@@@@@@@@@",
"@@@@@@@@@@@@@@",
"@@@@@@@@@@@@@@",
"@@@@@@@@@@@@@@",
"@@@@@@@@@@@@@@",
"@@@@@@@@@@@@@@",
"@@@@@@@@@@@@@@",
"@@@@@@@@@@@@@@",
"@@@@@@@@@@@@@@",
"@@@#$%&&%$#@@@",
"@@*=#-;;-#=*@@",
"@>,')!~~!){,>@",
"],'^//////({,]",
"_:)////////):_",
"<{!////////[{<",
"}|1////////~|}",
"$|1////////~;$",
"*'!////////[2*",
"34)////////)43",
"@56(//////^63@",
"@##6)[11[)6#]@",
"@@]786||68#]@@",
"@@@@@]]]]@@@@@",
"@@@@@@@@@@@@@@",
"@@@@@@@@@@@@@@",
"@@@@@@@@@@@@@@",
"@@@@@@@@@@@@@@",
"@@@@@@@@@@@@@@",
"@@@@@@@@@@@@@@",
"@@@@@@@@@@@@@@",
"@@@@@@@@@@@@@@",
"@@@@@@@@@@@@@@",
"@@@@@@@@@@@@@@",
"@@@@@@@@@@@@@@",
"@@@@@@@@@@@@@@",
",,,,,,,,,,,,,,"};
