/* XPM */
static char * stick_prelight_xpm[] = {
"14 40 59 1",
" 	c None",
".	c #000000",
"+	c #4D4D4D",
"@	c #1A1A1A",
"#	c #181818",
"$	c #0E0E0E",
"%	c #060606",
"&	c #020202",
"*	c #121212",
"=	c #050505",
"-	c #292929",
";	c #313131",
">	c #131313",
",	c #090909",
"'	c #2B2B2B",
")	c #1C4F5F",
"!	c #08607C",
"~	c #055E7B",
"{	c #09607C",
"]	c #1D4F60",
"^	c #2A2A2A",
"/	c #191919",
"(	c #080808",
"_	c #105B74",
":	c #055D79",
"<	c #105B72",
"[	c #111111",
"}	c #1B1B1B",
"|	c #05617E",
"1	c #066D8E",
"2	c #077599",
"3	c #07789D",
"4	c #077598",
"5	c #1C4F5E",
"6	c #0D0D0D",
"7	c #0C6480",
"8	c #07789E",
"9	c #077A9F",
"0	c #07799E",
"a	c #0C637F",
"b	c #0C0C0C",
"c	c #323232",
"d	c #097598",
"e	c #09769A",
"f	c #0A7699",
"g	c #126884",
"h	c #126783",
"i	c #2C2C2C",
"j	c #161616",
"k	c #202020",
"l	c #264954",
"m	c #264853",
"n	c #2D2D2D",
"o	c #1C586B",
"p	c #1D586B",
"q	c #151515",
"r	c #126883",
"s	c #171717",
"t	c #232323",
"..............",
"++++++++++++++",
"@@@@@@@@@@@@@@",
"@@@@@@@@@@@@@@",
"@@@@@@@@@@@@@@",
"@@@@@@@@@@@@@@",
"@@@@@@@@@@@@@@",
"@@@@@@@@@@@@@@",
"@@@@@@@@@@@@@@",
"@@@@@@@@@@@@@@",
"@@@@@@@@@@@@@@",
"@@@@@@@@@@@@@@",
"@@@@@@@@@@@@@@",
"@@@#$%&&%$#@@@",
"@@*=#-;;-#=*@@",
"@>,')!~~{]^,>@",
"/('_::::::<^(#",
"[})|123341|5}[",
"6^789999990a^6",
"bcd99999999dcb",
"$ce99999999f;$",
"*'g99999999hi*",
"jkl99999999mkj",
"@>no999999pnq/",
"@##nmreehmn#/@",
"@@/stnccnt#/@@",
"@@@@@////@@@@@",
"@@@@@@@@@@@@@@",
"@@@@@@@@@@@@@@",
"@@@@@@@@@@@@@@",
"@@@@@@@@@@@@@@",
"@@@@@@@@@@@@@@",
"@@@@@@@@@@@@@@",
"@@@@@@@@@@@@@@",
"@@@@@@@@@@@@@@",
"@@@@@@@@@@@@@@",
"@@@@@@@@@@@@@@",
"@@@@@@@@@@@@@@",
"@@@@@@@@@@@@@@",
".............."};
