/* XPM */
static char * stick_toggled_pressed_xpm[] = {
"14 40 74 1",
" 	c None",
".	c #000000",
"+	c #4D4D4D",
"@	c #1A1A1A",
"#	c #181818",
"$	c #0E0E0E",
"%	c #060606",
"&	c #020202",
"*	c #121212",
"=	c #050505",
"-	c #292929",
";	c #313131",
">	c #131313",
",	c #090909",
"'	c #2B2B2B",
")	c #393939",
"!	c #383838",
"~	c #343434",
"{	c #2A2A2A",
"]	c #191919",
"^	c #080808",
"/	c #3A3A3A",
"(	c #2A4651",
"_	c #0D7DA1",
":	c #087CA2",
"<	c #0C7DA1",
"[	c #274D59",
"}	c #111111",
"|	c #1B1B1B",
"1	c #2D4A54",
"2	c #087CA3",
"3	c #0884AB",
"4	c #088AB4",
"5	c #0889B4",
"6	c #0883AA",
"7	c #087DA2",
"8	c #2C4953",
"9	c #0D0D0D",
"0	c #3E3E3E",
"a	c #1382A5",
"b	c #09A1D2",
"c	c #0AA8DC",
"d	c #09A0D1",
"e	c #1482A6",
"f	c #0C0C0C",
"g	c #323232",
"h	c #4A4A4A",
"i	c #0D9ECF",
"j	c #0DA0CF",
"k	c #4B4B4B",
"l	c #0DA3D5",
"m	c #0EA3D4",
"n	c #4C4C4C",
"o	c #474747",
"p	c #1F8BAF",
"q	c #2189AC",
"r	c #464646",
"s	c #2C2C2C",
"t	c #161616",
"u	c #202020",
"v	c #3B3B3B",
"w	c #435B63",
"x	c #0EA2D2",
"y	c #0FA1D2",
"z	c #46575D",
"A	c #2D2D2D",
"B	c #404040",
"C	c #45575D",
"D	c #218AAD",
"E	c #0DA3D4",
"F	c #414141",
"G	c #151515",
"H	c #171717",
"I	c #232323",
"..............",
"++++++++++++++",
"@@@@@@@@@@@@@@",
"@@@@@@@@@@@@@@",
"@@@@@@@@@@@@@@",
"@@@@@@@@@@@@@@",
"@@@@@@@@@@@@@@",
"@@@@@@@@@@@@@@",
"@@@@@@@@@@@@@@",
"@@@@@@@@@@@@@@",
"@@@@@@@@@@@@@@",
"@@@@@@@@@@@@@@",
"@@@@@@@@@@@@@@",
"@@@#$%&&%$#@@@",
"@@*=#-;;-#=*@@",
"@>,')!~~!!{,>@",
"]^'/(_::<[/{^#",
"}|)12345678!|}",
"9{0abccccde0{9",
"fghiccccccjkgf",
"$gklccccccmn;$",
"*'opccccccqrs*",
"tuvwxccccyzvut",
"@>ABCDEEqzFAG]",
"@##AvrkkrvA#]@",
"@@]HIAggAI#]@@",
"@@@@@]]]]@@@@@",
"@@@@@@@@@@@@@@",
"@@@@@@@@@@@@@@",
"@@@@@@@@@@@@@@",
"@@@@@@@@@@@@@@",
"@@@@@@@@@@@@@@",
"@@@@@@@@@@@@@@",
"@@@@@@@@@@@@@@",
"@@@@@@@@@@@@@@",
"@@@@@@@@@@@@@@",
"@@@@@@@@@@@@@@",
"@@@@@@@@@@@@@@",
"@@@@@@@@@@@@@@",
".............."};
