/* XPM */
static char * stick_toggled_pressed_xpm[] = {
"14 40 72 1",
" 	c None",
".	c #000000",
"+	c #4D4D4D",
"@	c #1A1A1A",
"#	c #181818",
"$	c #0E0E0E",
"%	c #060606",
"&	c #020202",
"*	c #121212",
"=	c #050505",
"-	c #292929",
";	c #313131",
">	c #131313",
",	c #090909",
"'	c #2B2B2B",
")	c #265260",
"!	c #147FA1",
"~	c #0B92BE",
"{	c #147EA1",
"]	c #27525F",
"^	c #2A2A2A",
"/	c #191919",
"(	c #080808",
"_	c #1D6981",
":	c #12A0CF",
"<	c #38C2F0",
"[	c #4BD0FB",
"}	c #4BCFFB",
"|	c #39C2F1",
"1	c #14A2D1",
"2	c #1D677F",
"3	c #111111",
"4	c #1B1B1B",
"5	c #11A0CE",
"6	c #4ACFFA",
"7	c #41CAF6",
"8	c #37C4F2",
"9	c #37C3F2",
"0	c #42CAF6",
"a	c #119FCE",
"b	c #27515F",
"c	c #0D0D0D",
"d	c #2DBAE9",
"e	c #15AFE2",
"f	c #0AA8DC",
"g	c #16AFE2",
"h	c #147EA0",
"i	c #0C0C0C",
"j	c #323232",
"k	c #10ABDF",
"l	c #0EAADE",
"m	c #0C92BE",
"n	c #09A7DB",
"o	c #0AA7DB",
"p	c #0C92BD",
"q	c #0AA2D5",
"r	c #0AA2D4",
"s	c #147D9F",
"t	c #2C2C2C",
"u	c #161616",
"v	c #202020",
"w	c #0A9AC9",
"x	c #0AA7DA",
"y	c #0AA6DB",
"z	c #0998C7",
"A	c #27505E",
"B	c #141414",
"C	c #2D2D2D",
"D	c #0999C8",
"E	c #1E677E",
"F	c #171717",
"G	c #232323",
"..............",
"++++++++++++++",
"@@@@@@@@@@@@@@",
"@@@@@@@@@@@@@@",
"@@@@@@@@@@@@@@",
"@@@@@@@@@@@@@@",
"@@@@@@@@@@@@@@",
"@@@@@@@@@@@@@@",
"@@@@@@@@@@@@@@",
"@@@@@@@@@@@@@@",
"@@@@@@@@@@@@@@",
"@@@@@@@@@@@@@@",
"@@@@@@@@@@@@@@",
"@@@#$%&&%$#@@@",
"@@*=#-;;-#=*@@",
"@>,')!~~{]^,>@",
"/('_:<[}|12^(#",
"34)5678906ab43",
"c^!deffffgdh^c",
"ij~kfffffflmji",
"$j~nffffffop;$",
"*'{qffffffrst*",
"uv]wxffffyzAvu",
"@BC2DqnnrzECu@",
"@##Cbh~~sAC#/@",
"@@/FGCjjCG#/@@",
"@@@@@////@@@@@",
"@@@@@@@@@@@@@@",
"@@@@@@@@@@@@@@",
"@@@@@@@@@@@@@@",
"@@@@@@@@@@@@@@",
"@@@@@@@@@@@@@@",
"@@@@@@@@@@@@@@",
"@@@@@@@@@@@@@@",
"@@@@@@@@@@@@@@",
"@@@@@@@@@@@@@@",
"@@@@@@@@@@@@@@",
"@@@@@@@@@@@@@@",
"@@@@@@@@@@@@@@",
".............."};
