/* XPM */
static char * stick_pressed_xpm[] = {
"14 40 72 1",
" 	c None",
".	c #000000",
"+	c #4D4D4D",
"@	c #1A1A1A",
"#	c #181818",
"$	c #0D0D0D",
"%	c #060606",
"&	c #020202",
"*	c #0E0E0E",
"=	c #121212",
"-	c #292929",
";	c #313131",
">	c #050505",
",	c #131313",
"'	c #0A0A0A",
")	c #2B2B2B",
"!	c #1C5F75",
"~	c #0A7B9F",
"{	c #077BA0",
"]	c #1D5D72",
"^	c #2A2A2A",
"/	c #090909",
"(	c #141414",
"_	c #191919",
":	c #117391",
"<	c #077A9F",
"[	c #13708E",
"}	c #101010",
"|	c #1B1B1B",
"1	c #1C6076",
"2	c #077EA5",
"3	c #088AB4",
"4	c #0892BE",
"5	c #0996C3",
"6	c #0896C3",
"7	c #088AB3",
"8	c #077EA3",
"9	c #1E5B70",
"0	c #111111",
"a	c #0C0C0C",
"b	c #0D7CA1",
"c	c #0995C3",
"d	c #0997C5",
"e	c #0996C4",
"f	c #0F7C9E",
"g	c #0A92BE",
"h	c #0A8FBA",
"i	c #323232",
"j	c #0B93BF",
"k	c #0B90BB",
"l	c #0F0F0F",
"m	c #2C2C2C",
"n	c #137FA2",
"o	c #157C9E",
"p	c #151515",
"q	c #202020",
"r	c #265261",
"s	c #28505D",
"t	c #161616",
"u	c #2D2D2D",
"v	c #1D6981",
"w	c #1E657C",
"x	c #2E2E2E",
"y	c #26515F",
"z	c #147EA0",
"A	c #0B92BE",
"B	c #0C92BE",
"C	c #147C9E",
"D	c #274F5C",
"E	c #171717",
"F	c #232323",
"G	c #222222",
"..............",
"++++++++++++++",
"@@@@@@@@@@@@@@",
"@@@@@@@@@@@@@@",
"@@@@@@@@@@@@@@",
"@@@@@@@@@@@@@@",
"@@@@@@@@@@@@@@",
"@@@@@@@@@@@@@@",
"@@@@@@@@@@@@@@",
"@@@@@@@@@@@@@@",
"@@@@@@@@@@@@@@",
"@@@@@@@@@@@@@@",
"@@@@@@@@@@@@@@",
"@@@#$%&&%*#@@@",
"@@=%#-;;-#>,@@",
"@,')!~{{~]^/(@",
"_/):<<<<<<[^/#",
"}|1234564789@0",
"a)bcddddddef-$",
"$;gddddddddh;$",
"*ijddddddddk;l",
"=mnddddddddo)=",
"pqrddddddddsqt",
"@(uvddddddwup_",
"@#_xyzABCDu#_@",
"@@_EFui;mG#_@@",
"@@@@@____@@@@@",
"@@@@@@@@@@@@@@",
"@@@@@@@@@@@@@@",
"@@@@@@@@@@@@@@",
"@@@@@@@@@@@@@@",
"@@@@@@@@@@@@@@",
"@@@@@@@@@@@@@@",
"@@@@@@@@@@@@@@",
"@@@@@@@@@@@@@@",
"@@@@@@@@@@@@@@",
"@@@@@@@@@@@@@@",
"@@@@@@@@@@@@@@",
"@@@@@@@@@@@@@@",
".............."};
