/* XPM */
static char * stick_toggled_prelight_xpm[] = {
"14 40 70 1",
" 	c None",
".	c #000000",
"+	c #4D4D4D",
"@	c #1A1A1A",
"#	c #181818",
"$	c #0E0E0E",
"%	c #060606",
"&	c #020202",
"*	c #121212",
"=	c #050505",
"-	c #292929",
";	c #313131",
">	c #131313",
",	c #090909",
"'	c #2B2B2B",
")	c #265D6F",
"!	c #1599C5",
"~	c #0DB4EB",
"{	c #1598C4",
"]	c #275C6E",
"^	c #2A2A2A",
"/	c #191919",
"(	c #080808",
"_	c #1E7B9A",
":	c #26C2F6",
"<	c #85DFFC",
"[	c #A5E8FE",
"}	c #A5E7FE",
"|	c #86DFFD",
"1	c #2CC5F7",
"2	c #1E7997",
"3	c #111111",
"4	c #1B1B1B",
"5	c #25C2F6",
"6	c #A3E8FE",
"7	c #98E4FE",
"8	c #8AE1FD",
"9	c #8BE2FD",
"0	c #24C2F6",
"a	c #275B6D",
"b	c #0D0D0D",
"c	c #71DAFC",
"d	c #5FD6FD",
"e	c #4FD2FD",
"f	c #1598C3",
"g	c #0C0C0C",
"h	c #323232",
"i	c #0CB3EB",
"j	c #56D3FC",
"k	c #53D2FC",
"l	c #4CD0FC",
"m	c #4BD1FC",
"n	c #0DB3EA",
"o	c #39CAFB",
"p	c #38CAFA",
"q	c #1597C2",
"r	c #2C2C2C",
"s	c #161616",
"t	c #202020",
"u	c #15BEF6",
"v	c #4BD0FC",
"w	c #4AD0FC",
"x	c #13BDF5",
"y	c #275B6C",
"z	c #141414",
"A	c #2D2D2D",
"B	c #39CAFA",
"C	c #1F7996",
"D	c #171717",
"E	c #232323",
"..............",
"++++++++++++++",
"@@@@@@@@@@@@@@",
"@@@@@@@@@@@@@@",
"@@@@@@@@@@@@@@",
"@@@@@@@@@@@@@@",
"@@@@@@@@@@@@@@",
"@@@@@@@@@@@@@@",
"@@@@@@@@@@@@@@",
"@@@@@@@@@@@@@@",
"@@@@@@@@@@@@@@",
"@@@@@@@@@@@@@@",
"@@@@@@@@@@@@@@",
"@@@#$%&&%$#@@@",
"@@*=#-;;-#=*@@",
"@>,')!~~{]^,>@",
"/('_:<[}|12^(#",
"34)56789760a43",
"b^!cdeeeedcf^b",
"ghijeeeeeek~hg",
"$hileeeeeemn;$",
"*'{oeeeeeepqr*",
"st]uveeeewxyts",
"@zA2xBllpxCAs@",
"@##AafiiqyA#/@",
"@@/DEAhhAE#/@@",
"@@@@@////@@@@@",
"@@@@@@@@@@@@@@",
"@@@@@@@@@@@@@@",
"@@@@@@@@@@@@@@",
"@@@@@@@@@@@@@@",
"@@@@@@@@@@@@@@",
"@@@@@@@@@@@@@@",
"@@@@@@@@@@@@@@",
"@@@@@@@@@@@@@@",
"@@@@@@@@@@@@@@",
"@@@@@@@@@@@@@@",
"@@@@@@@@@@@@@@",
"@@@@@@@@@@@@@@",
".............."};
