/* XPM */
static char * stick_prelight_xpm[] = {
"14 40 48 1",
" 	c None",
".	c #000000",
"+	c #4D4D4D",
"@	c #1A1A1A",
"#	c #181818",
"$	c #0E0E0E",
"%	c #060606",
"&	c #020202",
"*	c #121212",
"=	c #050505",
"-	c #292929",
";	c #313131",
">	c #131313",
",	c #090909",
"'	c #2B2B2B",
")	c #393939",
"!	c #383838",
"~	c #343434",
"{	c #2A2A2A",
"]	c #191919",
"^	c #080808",
"/	c #3A3A3A",
"(	c #333333",
"_	c #111111",
":	c #1B1B1B",
"<	c #373737",
"[	c #414141",
"}	c #494949",
"|	c #4C4C4C",
"1	c #4B4B4B",
"2	c #484848",
"3	c #363636",
"4	c #0D0D0D",
"5	c #3E3E3E",
"6	c #0C0C0C",
"7	c #323232",
"8	c #4A4A4A",
"9	c #474747",
"0	c #464646",
"a	c #2C2C2C",
"b	c #161616",
"c	c #202020",
"d	c #3B3B3B",
"e	c #2D2D2D",
"f	c #404040",
"g	c #151515",
"h	c #171717",
"i	c #232323",
"..............",
"++++++++++++++",
"@@@@@@@@@@@@@@",
"@@@@@@@@@@@@@@",
"@@@@@@@@@@@@@@",
"@@@@@@@@@@@@@@",
"@@@@@@@@@@@@@@",
"@@@@@@@@@@@@@@",
"@@@@@@@@@@@@@@",
"@@@@@@@@@@@@@@",
"@@@@@@@@@@@@@@",
"@@@@@@@@@@@@@@",
"@@@@@@@@@@@@@@",
"@@@#$%&&%$#@@@",
"@@*=#-;;-#=*@@",
"@>,')!~~!!{,>@",
"]^'/((((((/{^#",
"_:)<[}|12[3!:_",
"4{51+++++++5{4",
"678++++++++176",
"$71++++++++|;$",
"*'9++++++++0a*",
"bcd++++++++dcb",
"@>ef++++++[eg]",
"@##ed0110de#]@",
"@@]hie77ei#]@@",
"@@@@@]]]]@@@@@",
"@@@@@@@@@@@@@@",
"@@@@@@@@@@@@@@",
"@@@@@@@@@@@@@@",
"@@@@@@@@@@@@@@",
"@@@@@@@@@@@@@@",
"@@@@@@@@@@@@@@",
"@@@@@@@@@@@@@@",
"@@@@@@@@@@@@@@",
"@@@@@@@@@@@@@@",
"@@@@@@@@@@@@@@",
"@@@@@@@@@@@@@@",
"@@@@@@@@@@@@@@",
".............."};
