/* XPM */
static char * stick_toggled_active_xpm[] = {
"14 40 73 1",
" 	c None",
".	c #000000",
"+	c #4D4D4D",
"@	c #1A1A1A",
"#	c #181818",
"$	c #0E0E0E",
"%	c #060606",
"&	c #020202",
"*	c #121212",
"=	c #050505",
"-	c #292929",
";	c #313131",
">	c #131313",
",	c #090909",
"'	c #2B2B2B",
")	c #265260",
"!	c #147FA1",
"~	c #0B92BE",
"{	c #147EA1",
"]	c #27525F",
"^	c #2A2A2A",
"/	c #191919",
"(	c #080808",
"_	c #1D6981",
":	c #18A3D1",
"<	c #5ACFF5",
"[	c #7BDDFD",
"}	c #5BD0F6",
"|	c #1CA6D4",
"1	c #1D677F",
"2	c #111111",
"3	c #1B1B1B",
"4	c #17A3D1",
"5	c #79DCFD",
"6	c #69D7FC",
"7	c #58D2FA",
"8	c #59D2FA",
"9	c #6AD8FC",
"0	c #16A2D1",
"a	c #27515F",
"b	c #0D0D0D",
"c	c #46C7F1",
"d	c #1FC1F6",
"e	c #0BBAF4",
"f	c #20C0F6",
"g	c #147EA0",
"h	c #0C0C0C",
"i	c #323232",
"j	c #17BDF3",
"k	c #13BBF3",
"l	c #0C92BE",
"m	c #0AB9F2",
"n	c #0BB8F2",
"o	c #0C92BD",
"p	c #0BAFE5",
"q	c #0AAEE4",
"r	c #147D9F",
"s	c #2C2C2C",
"t	c #161616",
"u	c #202020",
"v	c #0A9CCC",
"w	c #0BB8F1",
"x	c #0BB7F1",
"y	c #099ACA",
"z	c #27505E",
"A	c #2D2D2D",
"B	c #099BCB",
"C	c #0AAEE5",
"D	c #0AB8F2",
"E	c #1E677E",
"F	c #151515",
"G	c #171717",
"H	c #232323",
"..............",
"++++++++++++++",
"@@@@@@@@@@@@@@",
"@@@@@@@@@@@@@@",
"@@@@@@@@@@@@@@",
"@@@@@@@@@@@@@@",
"@@@@@@@@@@@@@@",
"@@@@@@@@@@@@@@",
"@@@@@@@@@@@@@@",
"@@@@@@@@@@@@@@",
"@@@@@@@@@@@@@@",
"@@@@@@@@@@@@@@",
"@@@@@@@@@@@@@@",
"@@@#$%&&%$#@@@",
"@@*=#-;;-#=*@@",
"@>,')!~~{]^,>@",
"/('_:<[[}|1^(#",
"23)45678950a32",
"b^!cdeeeefcg^b",
"hi~jeeeeeeklih",
"$i~meeeeeeno;$",
"*'{peeeeeeqrs*",
"tu]vweeeexyzut",
"@>A1BCDDqyEAF/",
"@##Aag~~rzA#/@",
"@@/GHAiiAH#/@@",
"@@@@@////@@@@@",
"@@@@@@@@@@@@@@",
"@@@@@@@@@@@@@@",
"@@@@@@@@@@@@@@",
"@@@@@@@@@@@@@@",
"@@@@@@@@@@@@@@",
"@@@@@@@@@@@@@@",
"@@@@@@@@@@@@@@",
"@@@@@@@@@@@@@@",
"@@@@@@@@@@@@@@",
"@@@@@@@@@@@@@@",
"@@@@@@@@@@@@@@",
"@@@@@@@@@@@@@@",
".............."};
