/* XPM */
static char * stick_toggled_inactive_xpm[] = {
"14 40 51 1",
" 	c None",
".	c #000000",
"+	c #333333",
"@	c #1A1A1A",
"#	c #181818",
"$	c #0E0E0E",
"%	c #060606",
"&	c #020202",
"*	c #121212",
"=	c #050505",
"-	c #292929",
";	c #313131",
">	c #131313",
",	c #090909",
"'	c #2B2B2B",
")	c #26515F",
"!	c #147EA1",
"~	c #0B92BE",
"{	c #0A0A0A",
"]	c #191919",
"^	c #080808",
"/	c #2A2A2A",
"(	c #1D6880",
"_	c #099BCB",
":	c #0AAEE5",
"<	c #0AB9F2",
"[	c #0BAFE5",
"}	c #0A9CCC",
"|	c #1D6780",
"1	c #111111",
"2	c #1B1B1B",
"3	c #0BB8F1",
"4	c #0BBAF4",
"5	c #27525F",
"6	c #0D0D0D",
"7	c #0AAFE5",
"8	c #0C0C0C",
"9	c #323232",
"0	c #0AB8F2",
"a	c #0C92BE",
"b	c #147EA0",
"c	c #161616",
"d	c #202020",
"e	c #27515F",
"f	c #2D2D2D",
"g	c #1E677F",
"h	c #099ACA",
"i	c #147D9F",
"j	c #27505E",
"k	c #171717",
"l	c #232323",
"..............",
"++++++++++++++",
"@@@@@@@@@@@@@@",
"@@@@@@@@@@@@@@",
"@@@@@@@@@@@@@@",
"@@@@@@@@@@@@@@",
"@@@@@@@@@@@@@@",
"@@@@@@@@@@@@@@",
"@@@@@@@@@@@@@@",
"@@@@@@@@@@@@@@",
"@@@@@@@@@@@@@@",
"@@@@@@@@@@@@@@",
"@@@@@@@@@@@@@@",
"@@@#$%&&%$#@@@",
"@@*=#-;;-#=*@@",
"@>,')!~~!)'{>@",
"]^/(_:<<[}|'^]",
"12)_344443_521",
"6/!74444447!/6",
"89~0444444<~98",
"$;a04444440a;$",
"*'b[444444:b'*",
"cde}344443_edc",
"@>fgh:00:hgf>@",
"@]#fei~~ijf]]@",
"@@]klf99flk]@@",
"@@@@@]]]]@@@@@",
"@@@@@@@@@@@@@@",
"@@@@@@@@@@@@@@",
"@@@@@@@@@@@@@@",
"@@@@@@@@@@@@@@",
"@@@@@@@@@@@@@@",
"@@@@@@@@@@@@@@",
"@@@@@@@@@@@@@@",
"@@@@@@@@@@@@@@",
"@@@@@@@@@@@@@@",
"@@@@@@@@@@@@@@",
"@@@@@@@@@@@@@@",
"@@@@@@@@@@@@@@",
",,,,,,,,,,,,,,"};
