/* XPM */
static char * title_1_active_xpm[] = {
"1 40 4 1",
" 	c None",
".	c #000000",
"+	c #4D4D4D",
"@	c #1A1A1A",
".",
"+",
"@",
"@",
"@",
"@",
"@",
"@",
"@",
"@",
"@",
"@",
"@",
"@",
"@",
"@",
"@",
"@",
"@",
"@",
"@",
"@",
"@",
"@",
"@",
"@",
"@",
"@",
"@",
"@",
"@",
"@",
"@",
"@",
"@",
"@",
"@",
"@",
"@",
"."};
