/* XPM */
static char * title_2_inactive_xpm[] = {
"1 42 4 1",
" 	c None",
".	c #000000",
"+	c #333333",
"@	c #1A1A1A",
".",
"+",
"@",
"@",
"@",
"@",
"@",
"@",
"@",
"@",
"@",
"@",
"@",
"@",
"@",
"@",
"@",
"@",
"@",
"@",
"@",
"@",
"@",
"@",
"@",
"@",
"@",
"@",
"@",
"@",
"@",
"@",
"@",
"@",
"@",
"@",
"@",
"@",
"@",
"@",
"@",
"."};
