/* XPM */
static char * top_left_active_xpm[] = {
"9 42 22 1",
" 	c None",
".	c #000000",
"+	c #0E0E0E",
"@	c #2C2C2C",
"#	c #404040",
"$	c #4A4A4A",
"%	c #020202",
"&	c #2D2D2D",
"*	c #444444",
"=	c #303030",
"-	c #232323",
";	c #1C1C1C",
">	c #383838",
",	c #2F2F2F",
"'	c #1B1B1B",
")	c #1A1A1A",
"!	c #2E2E2E",
"~	c #272727",
"{	c #292929",
"]	c #2B2B2B",
"^	c #222222",
"/	c #1D1D1D",
"      ...",
"    .+@#$",
"   %&*=-;",
"  %>,')))",
" .!~)))))",
" +!))))))",
".{'))))))",
".])))))))",
".^)))))))",
"./)))))))",
".))))))))",
".))))))))",
".))))))))",
".))))))))",
".))))))))",
".))))))))",
".))))))))",
".))))))))",
".))))))))",
".))))))))",
".))))))))",
".))))))))",
".))))))))",
".))))))))",
".))))))))",
".))))))))",
".))))))))",
".))))))))",
".))))))))",
".))))))))",
".))))))))",
".))))))))",
".))))))))",
".))))))))",
".))))))))",
".))))))))",
".))))))))",
".))))))))",
".))))))))",
".))))))))",
".))))))))",
"........."};
