/* XPM */
static char * top_right_active_xpm[] = {
"9 42 21 1",
" 	c None",
".	c #000000",
"+	c #4A4A4A",
"@	c #404040",
"#	c #2B2B2B",
"$	c #0D0D0D",
"%	c #1C1C1C",
"&	c #232323",
"*	c #313131",
"=	c #434343",
"-	c #2D2D2D",
";	c #020202",
">	c #1A1A1A",
",	c #1B1B1B",
"'	c #2F2F2F",
")	c #393939",
"!	c #272727",
"~	c #2C2C2C",
"{	c #282828",
"]	c #2A2A2A",
"^	c #1D1D1D",
"...      ",
"+@#$.    ",
"%&*=-;   ",
">>>,');  ",
">>>>>!~. ",
">>>>>>'$ ",
">>>>>>,{.",
">>>>>>>].",
">>>>>>>&.",
">>>>>>>^.",
">>>>>>>>.",
">>>>>>>>.",
">>>>>>>>.",
">>>>>>>>.",
">>>>>>>>.",
">>>>>>>>.",
">>>>>>>>.",
">>>>>>>>.",
">>>>>>>>.",
">>>>>>>>.",
">>>>>>>>.",
">>>>>>>>.",
">>>>>>>>.",
">>>>>>>>.",
">>>>>>>>.",
">>>>>>>>.",
">>>>>>>>.",
">>>>>>>>.",
">>>>>>>>.",
">>>>>>>>.",
">>>>>>>>.",
">>>>>>>>.",
">>>>>>>>.",
">>>>>>>>.",
">>>>>>>>.",
">>>>>>>>.",
">>>>>>>>.",
">>>>>>>>.",
">>>>>>>>.",
">>>>>>>>.",
">>>>>>>>.",
"........."};
