/* XPM */
static char * top_left_inactive_xpm[] = {
"9 42 17 1",
" 	c None",
".	c #000000",
"+	c #090909",
"@	c #1D1D1D",
"#	c #2A2A2A",
"$	c #313131",
"%	c #010101",
"&	c #1E1E1E",
"*	c #2F2F2F",
"=	c #252525",
"-	c #1F1F1F",
";	c #1B1B1B",
">	c #262626",
",	c #242424",
"'	c #1A1A1A",
")	c #202020",
"!	c #222222",
"      ...",
"    .+@#$",
"   %&*=-;",
"  %>,''''",
" .&)'''''",
" +,''''''",
".@'''''''",
".!'''''''",
".&'''''''",
".;'''''''",
".''''''''",
".''''''''",
".''''''''",
".''''''''",
".''''''''",
".''''''''",
".''''''''",
".''''''''",
".''''''''",
".''''''''",
".''''''''",
".''''''''",
".''''''''",
".''''''''",
".''''''''",
".''''''''",
".''''''''",
".''''''''",
".''''''''",
".''''''''",
".''''''''",
".''''''''",
".''''''''",
".''''''''",
".''''''''",
".''''''''",
".''''''''",
".''''''''",
".''''''''",
".''''''''",
".''''''''",
"........."};
