/* XPM */
static char * top_right_inactive_xpm[] = {
"9 42 18 1",
" 	c None",
".	c #000000",
"+	c #313131",
"@	c #2A2A2A",
"#	c #1D1D1D",
"$	c #090909",
"%	c #1B1B1B",
"&	c #1F1F1F",
"*	c #252525",
"=	c #2D2D2D",
"-	c #1E1E1E",
";	c #010101",
">	c #1A1A1A",
",	c #242424",
"'	c #262626",
")	c #202020",
"!	c #212121",
"~	c #1C1C1C",
"...      ",
"+@#$.    ",
"%&*=-;   ",
">>>%,';  ",
">>>>>)#. ",
">>>>>>,$ ",
">>>>>>%%.",
">>>>>>>!.",
">>>>>>>-.",
">>>>>>>~.",
">>>>>>>>.",
">>>>>>>>.",
">>>>>>>>.",
">>>>>>>>.",
">>>>>>>>.",
">>>>>>>>.",
">>>>>>>>.",
">>>>>>>>.",
">>>>>>>>.",
">>>>>>>>.",
">>>>>>>>.",
">>>>>>>>.",
">>>>>>>>.",
">>>>>>>>.",
">>>>>>>>.",
">>>>>>>>.",
">>>>>>>>.",
">>>>>>>>.",
">>>>>>>>.",
">>>>>>>>.",
">>>>>>>>.",
">>>>>>>>.",
">>>>>>>>.",
">>>>>>>>.",
">>>>>>>>.",
">>>>>>>>.",
">>>>>>>>.",
">>>>>>>>.",
">>>>>>>>.",
">>>>>>>>.",
">>>>>>>>.",
"........."};
